{"accessors":[{"bufferView":0,"componentType":5125,"count":540276,"max":[108795],"min":[0],"type":"SCALAR"},{"bufferView":1,"componentType":5126,"count":108796,"max":[26.973237991333008,185.98092651367188,56.508323669433594],"min":[-32.70817565917969,-1.0595667362213135,-56.03307342529297],"type":"VEC3"},{"bufferView":2,"componentType":5126,"count":108796,"max":[0.9999876618385315,0.9999642372131348,0.9999880194664001],"min":[-0.9999624490737915,-0.9999916553497314,-0.9999979138374329],"type":"VEC3"}],"asset":{"generator":"Soft8Soft Verge3D for 3ds Max plug-in","version":"2.0"},"bufferViews":[{"buffer":0,"byteLength":2161104,"byteOffset":0,"target":34963},{"buffer":0,"byteLength":1305552,"byteOffset":2161104,"target":34962},{"buffer":0,"byteLength":1305552,"byteOffset":3466656,"target":34962}],"buffers":[{"byteLength":4772208,"uri":"man-20w.bin"}],"cameras":[{"extensions":{"S8S_v3d_camera_data":{"controls":"ORBIT","enablePan":true,"moveSpeed":1,"orbitMaxDistance":10000,"orbitMaxPolarAngle":3.141592653589793,"orbitMinDistance":0,"orbitMinPolarAngle":0,"orbitTarget":[0,0,0],"rotateSpeed":1,"viewportFitInitialAspect":1.3333333730697632,"viewportFitType":"VERTICAL"}},"name":"__DEFAULT__","perspective":{"aspectRatio":1.3333333730697632,"yfov":0.6024156988215424,"zfar":4000.0,"znear":1.0},"type":"perspective"}],"extensions":{"S8S_v3d_data":{"lights":[{"color":[1,1,1],"intensity":1,"name":"__DEFAULT__","profile":"max","type":"point"},{"color":[0.0,0.0,0.0],"intensity":1,"name":"__AMBIENT__","profile":"max","type":"ambient"}]}},"extensionsUsed":["S8S_v3d_material_data","S8S_v3d_camera_data","S8S_v3d_data","S8S_v3d_node_data","S8S_v3d_scene_data"],"materials":[{"doubleSided":false,"emissiveFactor":[0,0,0],"extensions":{"S8S_v3d_material_data":{"depthWrite":true,"nodeGraph":{"edges":[{"fromNode":1,"fromOutput":0,"toInput":0,"toNode":0},{"fromNode":1,"fromOutput":1,"toInput":1,"toNode":0}],"nodes":[{"inputs":[[1,1,1,1]],"is_active_output":true,"name":"MaxOutput","outputs":[],"type":"OUTPUT_MAX"},{"IOR":1.5,"inputFactors":[0,0,0,0,0,0,0,0,0,0,0,0],"inputs":[[0.5879999995231628,0.5879999995231628,0.5879999995231628,1.0],[0.5879999995231628,0.5879999995231628,0.5879999995231628,1.0],[0.8999999761581421,0.8999999761581421,0.8999999761581421,1.0],0.10000000149011612,0.0,[0.0,0.0,0.0,1.0],1.0,[0,0,0,0],[0,0,0],[0,0,0,0],[0,0,0,0],0],"is_active_output":false,"name":"\u7537\u5973\u4fe9\u4eba_Default","outputs":[[0,0,0,0]],"selfIllumColorOn":false,"type":"MATERIAL_MAX"}]},"profile":"max","useShadeless":false}},"name":"\u7537\u5973\u4fe9\u4eba_Default"},{"extensions":{"S8S_v3d_material_data":{"depthWrite":true,"nodeGraph":{"edges":[],"nodes":[{"inputs":[[0.0,0.0,0.0,1]],"is_active_output":true,"name":"World Output","outputs":[],"type":"OUTPUT_MAX"}]},"profile":"max","useShadeless":false}},"name":"Verge3D_Environment"}],"meshes":[{"name":"rp_dennis_posed_004_30k","primitives":[{"attributes":{"NORMAL":2,"POSITION":1},"indices":0,"material":0,"mode":4}]}],"nodes":[{"extensions":{"S8S_v3d_node_data":{"frustumCulling":true,"hidden":false,"renderOrder":0,"useCastShadows":true,"useShadows":true}},"mesh":0,"name":"rp_dennis_posed_004_30k","translation":[-3.68084716796875,0.0,1.459930419921875]},{"camera":0,"children":[2],"name":"__DEFAULT_CAMERA__","rotation":[-0.04372949153184891,0.6964892745018005,0.04259867966175079,0.7149655818939209],"scale":[1.0000001192092896,1.0,1.0],"translation":[438.8771667480469,153.10757446289062,9.941210746765137]},{"extensions":{"S8S_v3d_node_data":{"light":0}},"name":"__DEFAULT_LIGHT__","rotation":[3.774895063202166e-08,0.0,0.0,1.0],"scale":[1.0,1.0,1.0],"translation":[467.60125732421875,701.4017944335938,935.2025756835938]}],"scene":0,"scenes":[{"extensions":{"S8S_v3d_scene_data":{"aaMethod":"AUTO","light":1,"postprocessing":[],"shadowMap":{"renderReverseSided":false,"renderSingleSided":true,"type":"PCFPOISSON"},"worldMaterial":1}},"extras":{"animFrameRate":30},"name":"Scene","nodes":[0,1]}]}
